<?xml version="1.0" encoding="iso-8859-1"?>
<!-- Generator: Adobe Illustrator 18.1.1, SVG Export Plug-In . SVG Version: 6.00 Build 0)  -->
<svg version="1.1" id="Capa_1" xmlns="http://www.w3.org/2000/svg" xmlns:xlink="http://www.w3.org/1999/xlink" x="0px" y="0px"
	 viewBox="0 0 53.538 53.538" style="enable-background:new 0 0 53.538 53.538;" xml:space="preserve">
<g>
	<g>
		<path style="fill:#010002;" d="M26.769,0C12.009,0,0,12.008,0,26.769s12.009,26.769,26.769,26.769S53.538,41.53,53.538,26.769
			C53.537,12.009,41.528,0,26.769,0z M26.769,50.539C13.663,50.539,3,39.876,3,26.77C3,13.663,13.662,3.001,26.769,3.001
			S50.538,13.664,50.538,26.77C50.537,39.876,39.875,50.539,26.769,50.539z"/>
		<path style="fill:#010002;" d="M26.769,17.561c-5.077,0-9.208,4.131-9.208,9.208s4.131,9.208,9.208,9.208s9.208-4.131,9.208-9.208
			S31.846,17.561,26.769,17.561z M26.769,32.978c-3.423,0-6.208-2.785-6.208-6.208s2.785-6.208,6.208-6.208s6.208,2.785,6.208,6.208
			S30.191,32.978,26.769,32.978z"/>
	</g>
</g>
<g>
</g>
<g>
</g>
<g>
</g>
<g>
</g>
<g>
</g>
<g>
</g>
<g>
</g>
<g>
</g>
<g>
</g>
<g>
</g>
<g>
</g>
<g>
</g>
<g>
</g>
<g>
</g>
<g>
</g>
</svg>
